<?xml version="1.0" standalone="no"?>
<!DOCTYPE svg PUBLIC "-//W3C//DTD SVG 20010904//EN"
 "http://www.w3.org/TR/2001/REC-SVG-20010904/DTD/svg10.dtd">
<svg version="1.0" xmlns="http://www.w3.org/2000/svg"
 width="625.000000pt" height="147.000000pt" viewBox="0 0 625.000000 147.000000"
 preserveAspectRatio="xMidYMid meet">

<g transform="translate(0.000000,147.000000) scale(0.100000,-0.100000)"
fill="#000000" stroke="none">
<path d="M550 1416 c-145 -31 -259 -95 -363 -205 -76 -81 -116 -148 -152 -254
-29 -88 -47 -267 -26 -267 7 0 84 37 171 82 151 78 163 83 233 86 53 3 82 0
104 -11 70 -37 73 -34 -211 -186 -196 -105 -264 -146 -259 -156 3 -8 9 -15 14
-15 5 0 94 45 197 99 324 172 580 281 659 281 65 0 199 -64 359 -171 40 -26
74 -45 78 -42 3 4 6 40 6 80 0 305 -190 569 -475 659 -99 31 -241 40 -335 20z"/>
<path d="M5419 996 c-97 -34 -150 -114 -157 -237 -7 -124 38 -218 127 -264 74
-38 201 -36 282 5 77 39 79 42 79 147 l0 93 -115 0 -115 0 0 -30 0 -30 81 0
80 0 -3 -52 c-3 -51 -5 -54 -42 -72 -45 -22 -119 -31 -170 -22 -81 15 -135 98
-136 204 0 134 68 212 185 212 76 0 120 -22 142 -71 16 -34 21 -38 43 -33 38
8 40 15 18 62 -34 70 -98 102 -202 102 -34 -1 -77 -7 -97 -14z"/>
<path d="M1762 738 l3 -263 165 1 c185 1 215 9 250 67 45 72 29 149 -38 194
-32 21 -32 22 -13 33 50 26 65 111 31 168 -32 53 -68 62 -245 62 l-155 0 2
-262z m300 155 c18 -19 20 -27 12 -50 -13 -39 -48 -53 -131 -53 l-73 0 0 66 0
66 85 -3 c71 -3 88 -7 107 -26z m16 -219 c27 -31 28 -54 3 -85 -17 -22 -29
-24 -115 -27 l-96 -4 0 77 0 78 93 -7 c81 -6 95 -10 115 -32z"/>
<path d="M2300 735 l0 -265 185 0 185 0 0 45 0 45 -130 0 -130 0 0 220 0 220
-55 0 -55 0 0 -265z"/>
<path d="M2751 798 c4 -183 6 -207 25 -243 31 -59 92 -87 188 -87 100 0 156
26 185 86 19 38 21 61 21 244 l0 202 -50 0 -50 0 0 -180 c0 -237 -10 -262
-105 -262 -96 0 -105 21 -105 257 l0 185 -56 0 -56 0 3 -202z"/>
<path d="M3290 735 l0 -265 200 0 200 0 0 45 0 44 -147 3 -148 3 0 70 0 70
133 3 132 3 0 44 0 45 -135 0 -136 0 3 58 3 57 143 3 142 3 0 39 0 40 -195 0
-195 0 0 -265z"/>
<path d="M4000 735 l0 -265 30 0 30 0 0 121 0 121 74 -4 c45 -2 80 -9 91 -18
10 -8 49 -61 87 -117 68 -102 69 -103 109 -103 38 0 39 1 28 23 -27 50 -94
145 -131 183 l-39 41 40 11 c81 25 119 109 85 190 -31 73 -58 82 -246 82
l-158 0 0 -265z m290 202 c68 -23 78 -110 17 -148 -26 -16 -51 -19 -139 -19
l-108 0 0 83 c0 46 3 87 7 90 11 12 186 7 223 -6z"/>
<path d="M4540 735 l0 -265 35 0 35 0 0 265 0 265 -35 0 -35 0 0 -265z"/>
<path d="M4740 734 l0 -267 133 5 c110 4 141 8 178 26 81 39 119 116 119 241
0 90 -10 131 -46 182 -45 65 -88 79 -247 79 l-137 0 0 -266z m287 186 c51 -30
73 -85 73 -177 0 -83 -20 -142 -57 -176 -22 -19 -110 -37 -185 -37 l-48 0 0
205 0 205 93 0 c74 0 98 -4 124 -20z"/>
<path d="M5852 738 l3 -263 198 -3 197 -2 0 30 0 30 -162 2 -163 3 -3 92 -3
92 148 3 148 3 0 25 0 25 -147 3 -148 3 0 79 0 80 154 0 c131 0 155 2 160 16
17 44 16 44 -189 44 l-195 0 2 -262z"/>
<path d="M521 620 c-91 -32 -431 -194 -431 -206 0 -3 21 -35 46 -70 153 -215
448 -321 708 -254 145 37 296 135 373 242 l32 45 -102 67 c-189 125 -388 206
-501 206 -23 0 -79 -14 -125 -30z"/>
</g>
</svg>
